<svg id="visual" viewBox="0 0 900 600" width="900" height="600" xmlns="http://www.w3.org/2000/svg" xmlns:xlink="http://www.w3.org/1999/xlink" version="1.1"><rect x="0" y="0" width="900" height="600" fill="#EAFDFC"></rect><defs><linearGradient id="grad1_0" x1="33.3%" y1="0%" x2="100%" y2="100%"><stop offset="20%" stop-color="#eafdfc" stop-opacity="1"></stop><stop offset="80%" stop-color="#eafdfc" stop-opacity="1"></stop></linearGradient></defs><defs><linearGradient id="grad2_0" x1="0%" y1="0%" x2="66.7%" y2="100%"><stop offset="20%" stop-color="#eafdfc" stop-opacity="1"></stop><stop offset="80%" stop-color="#eafdfc" stop-opacity="1"></stop></linearGradient></defs><g transform="translate(900, 0)"><path d="M0 486.7C-70.2 487.1 -140.5 487.4 -186.3 449.7C-232.1 412 -253.4 336.4 -285 285C-316.5 233.6 -358.2 206.5 -393.6 163C-428.9 119.6 -457.8 59.8 -486.7 0L0 0Z" fill="#BFEAF5"></path></g><g transform="translate(0, 600)"><path d="M0 -486.7C50.5 -439.6 101 -392.4 151.2 -364.9C201.3 -337.5 251.1 -329.9 305.5 -305.5C359.8 -281.1 418.7 -240 449.7 -186.3C480.7 -132.6 483.7 -66.3 486.7 0L0 0Z" fill="#BFEAF5"></path></g></svg>