<svg id="visual" viewBox="0 0 900 600" width="900" height="600" xmlns="http://www.w3.org/2000/svg" xmlns:xlink="http://www.w3.org/1999/xlink" version="1.1"><rect x="0" y="0" width="900" height="600" fill="#EAFDFC"></rect><defs><linearGradient id="grad1_0" x1="33.3%" y1="0%" x2="100%" y2="100%"><stop offset="20%" stop-color="#bfeaf5" stop-opacity="1"></stop><stop offset="80%" stop-color="#bfeaf5" stop-opacity="1"></stop></linearGradient></defs><defs><linearGradient id="grad1_1" x1="33.3%" y1="0%" x2="100%" y2="100%"><stop offset="20%" stop-color="#bfeaf5" stop-opacity="1"></stop><stop offset="80%" stop-color="#eafdfc" stop-opacity="1"></stop></linearGradient></defs><defs><linearGradient id="grad2_0" x1="0%" y1="0%" x2="66.7%" y2="100%"><stop offset="20%" stop-color="#bfeaf5" stop-opacity="1"></stop><stop offset="80%" stop-color="#bfeaf5" stop-opacity="1"></stop></linearGradient></defs><defs><linearGradient id="grad2_1" x1="0%" y1="0%" x2="66.7%" y2="100%"><stop offset="20%" stop-color="#eafdfc" stop-opacity="1"></stop><stop offset="80%" stop-color="#bfeaf5" stop-opacity="1"></stop></linearGradient></defs><g transform="translate(900, 0)"><path d="M0 486.7C-45 438.1 -90 389.5 -155 374.2C-220 358.8 -305 376.8 -344.2 344.2C-383.3 311.6 -376.5 228.4 -392.6 162.6C-408.8 96.9 -447.8 48.4 -486.7 0L0 0Z" fill="#d4f4f7"></path><path d="M0 243.4C-22.5 219.1 -45 194.8 -77.5 187.1C-110 179.4 -152.5 188.4 -172.1 172.1C-191.7 155.8 -188.3 114.2 -196.3 81.3C-204.4 48.4 -223.9 24.2 -243.4 0L0 0Z" fill="#bfeaf5"></path></g><g transform="translate(0, 600)"><path d="M0 -486.7C46.5 -443.3 93 -399.8 159.2 -384.3C225.4 -368.9 311.4 -381.5 344.2 -344.2C377 -306.8 356.5 -219.5 371.4 -153.8C386.3 -88.1 436.5 -44.1 486.7 0L0 0Z" fill="#d4f4f7"></path><path d="M0 -243.4C23.2 -221.6 46.5 -199.9 79.6 -192.2C112.7 -184.5 155.7 -190.8 172.1 -172.1C188.5 -153.4 178.3 -109.8 185.7 -76.9C193.1 -44.1 218.3 -22 243.4 0L0 0Z" fill="#bfeaf5"></path></g></svg>