<svg id="visual" viewBox="0 0 900 600" width="900" height="600" xmlns="http://www.w3.org/2000/svg" xmlns:xlink="http://www.w3.org/1999/xlink" version="1.1"><rect x="0" y="0" width="900" height="600" fill="#EEF1FF"></rect><defs><linearGradient id="grad1_0" x1="33.3%" y1="0%" x2="100%" y2="100%"><stop offset="20%" stop-color="#eef1ff" stop-opacity="1"></stop><stop offset="80%" stop-color="#eef1ff" stop-opacity="1"></stop></linearGradient></defs><defs><linearGradient id="grad2_0" x1="0%" y1="0%" x2="66.7%" y2="100%"><stop offset="20%" stop-color="#eef1ff" stop-opacity="1"></stop><stop offset="80%" stop-color="#eef1ff" stop-opacity="1"></stop></linearGradient></defs><g transform="translate(900, 0)"><path d="M0 486.7C-64 480.5 -128 474.3 -186.3 449.7C-244.5 425.1 -297.1 382.2 -332.3 332.3C-367.6 282.5 -385.5 225.7 -408.4 169.1C-431.2 112.6 -459 56.3 -486.7 0L0 0Z" fill="#D2DAFF"></path></g><g transform="translate(0, 600)"><path d="M0 -486.7C63.3 -479.8 126.6 -472.9 186.3 -449.7C246 -426.5 302.1 -387.1 337.3 -337.3C372.5 -287.4 386.9 -227.1 408.4 -169.1C429.8 -111.2 458.3 -55.6 486.7 0L0 0Z" fill="#D2DAFF"></path></g></svg>